<?xml version="1.0" encoding="utf-8"?>
<!-- Generator: Adobe Illustrator 16.0.0, SVG Export Plug-In . SVG Version: 6.00 Build 0)  -->
<!DOCTYPE svg PUBLIC "-//W3C//DTD SVG 1.1//EN" "http://www.w3.org/Graphics/SVG/1.1/DTD/svg11.dtd">
<svg version="1.1" id="Capa_1" xmlns="http://www.w3.org/2000/svg" xmlns:xlink="http://www.w3.org/1999/xlink" x="0px" y="0px"
	 width="1200px" height="1200px" viewBox="0 0 1200 1200" enable-background="new 0 0 1200 1200" xml:space="preserve">
<g>
	<path fill="#232323" d="M596.677,778.919L293.426,633.034V812.81c0,88.186,137.255,159.672,306.574,159.672
		s306.574-71.486,306.574-159.672V633.034L600,780.513L596.677,778.919z"/>
	<path fill="#232323" d="M1068.207,793.214c0-11.557-7.425-21.293-17.731-24.961V539.976L1150,492.097L600,227.519L50,492.097
		l550,264.584l432.736-208.172v219.744c-10.299,3.668-17.723,13.404-17.723,24.961c0,11.1,6.803,20.584,16.451,24.58l-40.74,98.709
		h101.763l-40.739-98.709C1061.403,813.798,1068.207,804.313,1068.207,793.214z"/>
</g>
</svg>
